PathFileType	4	(X/Y/Z)	Patient4_TMGait_0pt7_01_left_07.trc.trc
DataRate	CameraRate	NumFrames	NumMarkers	Units	OrigDataRate	OrigDataStartFrame	OrigNumFrames
86.956521739130	86.956521739130	4	33	mm	86.956521739130	53	       141
Frame#	Time	Sacral			L.Shoulder			Chest			R.Shoulder			Neck			R.ASIS			L.ASIS			R.Thigh.Superior			R.Thigh.Lateral			R.Thigh.Inferior			R.Patella			L.Thigh.Superior			L.Thigh.Lateral			L.Thigh.Inferior			L.Patella			L.Shank.Superior			L.Shank.Lateral			L.Shank.Inferior			R.Shank.Superior			R.Shank.Lateral			R.Shank.Inferior			R.Heel			R.Midfoot.Superior			R.Midfoot.Lateral			R.Toe			L.Heel			L.Midfoot.Lateral			L.Midfoot.Superior			L.Toe			L.Elbow			L.Wrist			R.Elbow			R.Wrist			
		X1	Y1	Z1	X2	Y2	Z2	X3	Y3	Z3	X4	Y4	Z4	X5	Y5	Z5	X6	Y6	Z6	X7	Y7	Z7	X8	Y8	Z8	X9	Y9	Z9	X10	Y10	Z10	X11	Y11	Z11	X12	Y12	Z12	X13	Y13	Z13	X14	Y14	Z14	X15	Y15	Z15	X16	Y16	Z16	X17	Y17	Z17	X18	Y18	Z18	X19	Y19	Z19	X20	Y20	Z20	X21	Y21	Z21	X22	Y22	Z22	X23	Y23	Z23	X24	Y24	Z24	X25	Y25	Z25	X26	Y26	Z26	X27	Y27	Z27	X28	Y28	Z28	X29	Y29	Z29	X30	Y30	Z30	X31	Y31	Z31	X32	Y32	Z32	X33	Y33	Z33	

53	8.658000000000	747.279730792009	1012.577448815510	437.483143564218	939.011245221509	1423.812787298720	235.682636274628	1038.644006900969	1359.207124415137	401.865586168976	958.765105860317	1450.249234495232	569.911538456250	945.340974773252	1496.048274018404	388.156069320364	972.623412468722	947.329384016543	556.342297967431	962.278297129366	964.116472654241	282.147365735791	1061.710411466241	790.894842760894	547.757811465937	1024.567916037140	672.518218803038	630.675348435985	1126.013857493335	637.952833290384	564.834696148957	1153.147796997856	528.576025620193	594.085075453385	999.230123659010	753.287989422962	306.564436262510	902.490979323177	641.433727165156	250.792830051420	987.032650314673	560.694133643990	307.715665581003	984.134748061890	492.908581240802	316.779063434079	959.158832264620	421.734882900472	312.077243049551	866.567785114450	304.879546892112	271.886624702132	929.003573675685	196.855381449849	341.145865276647	1084.700932147861	446.408666574756	595.346798515077	962.960247705685	394.255585751706	644.416907028359	966.823182815483	283.731038074149	598.047311225902	779.383106717998	186.129865060251	550.313921967361	949.869040311175	171.833954400551	617.788856143878	838.623182192853	149.288921065173	637.432215406243	1031.066061252392	79.178136559827	665.119618432507	807.360389017895	38.555242575940	394.578902324177	880.439183375474	34.643062521390	312.341870298805	963.216193197189	97.621783618366	335.384191997419	1091.486341112178	47.893129022990	308.716027621344	927.309876031391	1073.548775980855	118.345600073273	1013.865400749863	827.946577845927	122.563914338165	938.285285936580	1111.664866806289	705.516436299620	1162.850746446292	1021.726715960212	625.019888029991	
54	8.669500000000	745.793509760286	1012.097718345926	436.366815949167	938.147077795877	1423.367444300108	235.125651776231	1037.253098246030	1358.876580762874	401.697602228754	956.805005685010	1449.733804938903	569.557144646391	944.196303468553	1495.716489336506	387.574033462923	971.048210125654	947.137535052057	555.682169306660	961.298245079352	964.191158615324	281.484161673607	1061.291865326748	792.682068905938	547.044474049851	1025.938704992163	674.069650954472	630.407444069385	1127.462754010289	640.601129494848	564.167730303132	1156.716138504077	532.713901078730	593.728347212072	996.708195022467	752.444425179117	306.448789183445	898.784047852396	641.418252348387	250.234236506962	982.017894475161	559.796801806900	307.629471571004	978.313561734504	492.207727405244	316.903238677252	953.130840115802	421.217575087213	312.079216703303	860.075034798084	304.820370287830	271.642416336090	921.583437579153	196.527850993997	341.272034646376	1091.663673506092	448.618004599423	595.796511011011	973.180640132544	390.903331939174	646.359656243044	981.952993492437	280.375191451228	600.449454737287	799.021214993510	174.460819559981	555.028253146624	970.633882550705	166.966644206661	620.916754450130	860.538185658988	140.100106232261	641.628350324142	1055.853727719412	77.630763209689	667.664964970511	799.257310752690	38.524254920928	394.617703345100	872.360443210015	34.620596328638	312.380384862139	955.163106917295	97.499318702208	335.534111260907	1083.433454355440	47.757258944248	308.802772902663	936.963380614964	1073.923793276849	115.709428363563	1031.651894591656	831.376553871076	117.923268698831	925.630961868981	1111.792328693866	705.917321157904	1145.138234487697	1000.568448837534	635.216197602753	
55	8.681000000000	744.420577353096	1011.609592561223	435.445045835997	937.399546438726	1422.923083128193	234.694412866098	1035.951026349451	1358.522652421949	401.646162453341	954.963120288585	1449.238697399066	569.291595486667	943.132639760737	1495.368541021338	387.107474539477	969.520014692568	946.890734208534	555.222278853803	960.366623383850	964.247172438463	280.992247267561	1060.575860529735	794.067857099757	546.320145464703	1026.783163481665	675.190780384081	629.985768795635	1128.215531768284	642.634340643639	563.226684593471	1159.419853436333	536.408371821984	593.014944347435	994.176977432753	751.592958858069	306.354447967312	894.985953121716	641.419928878318	249.778303961025	976.942826591919	558.928273226371	307.541452018330	972.451781575821	491.517932844036	317.004603392517	947.049451887811	420.727037754397	312.081340012604	853.500163676556	304.794619107728	271.432717562193	914.130330408866	196.223067221105	341.371906928164	1098.059583276544	450.544998170860	595.982656491613	983.366776704092	387.147395360950	648.196603891195	997.376859177309	276.851928191165	602.768073437383	819.666755147730	162.398636282202	559.817594339446	992.195554582956	162.045626186407	623.964860741108	883.491135730235	130.708127383178	645.807791854499	1081.515157108264	76.375193828189	670.052462697729	791.157196549847	38.508342801759	394.643276312854	864.275240504094	34.595935566213	312.413671071380	947.103958195362	97.382604690464	335.663599490380	1075.373610509874	47.611952717588	308.884456654727	946.080400815509	1074.625977426114	113.375469906454	1049.077601413236	835.526831836285	113.685495584091	913.843781602792	1112.198644273741	706.315808766901	1125.941704129846	980.291925719239	645.581137851456	
56	8.692500000000	743.165871284423	1011.142764608019	434.704794186797	936.794965230407	1422.488661018130	234.398144366981	1034.754058561794	1358.150967971378	401.725129854949	953.245766474909	1448.772878252758	569.125452946305	942.160072721563	1495.010414440419	386.764880400213	968.054966062311	946.600593193885	554.966854934974	959.494259962494	964.289509725251	280.669651612990	1059.569823105178	795.032449727933	545.599377091594	1027.069570639243	675.856082394068	629.425630022333	1128.264764909696	644.023228619453	562.061052370109	1161.246323450386	539.627285468733	591.964134910622	991.625639766695	750.736369061989	306.279765246209	891.085984813823	641.439393359550	249.434075876470	971.793509254350	558.094428900602	307.457153374317	966.533847892820	490.845079529789	317.093763310540	940.903982803756	420.271034511502	312.093040407456	846.840867776169	304.806006391788	271.265143763523	906.649145540821	195.948024032409	341.453330316806	1103.858914350477	452.204512036625	595.899525893740	993.496245083894	383.113119676935	649.891819719529	1013.001818151735	273.339680206144	604.934023362884	841.247215680812	150.293298548235	564.562138813525	1014.418510394200	157.312320521879	626.815099838390	907.369150665130	121.412220593104	649.826623766908	1107.832647288120	75.605051433288	672.098495850922	783.061458898570	38.506828246295	394.654170174073	856.183653265791	34.571557605080	312.442772464393	939.038957679231	97.275062092314	335.771560701053	1067.305698116268	47.460852633349	308.957667127078	954.546720589861	1075.608729192264	111.313960753854	1066.090908222759	840.401106613278	109.881270593936	902.960004571593	1112.833768021193	706.740683309514	1105.334803328891	961.136119089971	655.990881094671	
